<svg width="90" height="650" viewBox="0 0 90 650" fill="none" xmlns="http://www.w3.org/2000/svg">
<mask id="path-1-outside-1_8_156" maskUnits="userSpaceOnUse" x="0" y="-1" width="90" height="651" fill="black">
<rect fill="white" y="-1" width="90" height="651"/>
<path d="M2.56 43.5174C2.56 35.0374 4.36 27.6774 7.96 21.4374C11.56 15.2774 16.52 10.4774 22.84 7.03736C29.24 3.67736 36.56 1.99736 44.8 1.99736C50.96 1.99736 56.6 2.99736 61.72 4.99736C66.92 7.07736 71.4 9.95736 75.16 13.6374C79 17.3174 81.92 21.6774 83.92 26.7174C86 31.8374 87.04 37.4374 87.04 43.5174C87.04 53.1174 84.96 60.9974 80.8 67.1574C76.64 73.3174 70.72 78.0374 63.04 81.3174L56.92 65.3574C61.48 62.7174 64.8 59.5974 66.88 55.9974C69.04 52.4774 70.12 48.3174 70.12 43.5174C70.12 38.9574 69.04 34.8774 66.88 31.2774C64.8 27.7574 61.88 24.9574 58.12 22.8774C54.36 20.8774 49.92 19.8774 44.8 19.8774C39.76 19.8774 35.32 20.8774 31.48 22.8774C27.72 24.9574 24.8 27.7574 22.72 31.2774C20.64 34.8774 19.6 38.9574 19.6 43.5174C19.6 48.3174 20.64 52.4774 22.72 55.9974C24.8 59.5974 28.12 62.7174 32.68 65.3574L26.56 81.3174C18.88 78.0374 12.96 73.3174 8.8 67.1574C4.64 60.9974 2.56 53.1174 2.56 43.5174ZM4 144.472H85.72V161.992H4V144.472ZM4 95.032H85.72V112.552H4V95.032ZM35.56 106.312H52.48V150.352H35.56V106.312ZM35.44 192.223V230.623H19.24V192.223H35.44ZM4 174.343L85.72 203.383V222.703L4 250.303V232.543L73.72 210.223V215.983L4 191.983V174.343ZM4 258.858L85.72 273.258V288.978L29.8 308.538V307.698L85.72 327.258V342.978L4 357.498V339.858L40.48 334.218C45.36 333.498 50.2 332.818 55 332.178C59.88 331.618 64.76 331.138 69.64 330.738V335.658C64.36 334.378 59.4 333.098 54.76 331.818C50.12 330.618 45.44 329.178 40.72 327.498L4.96 315.018V301.218L40.72 288.738C45.52 287.058 50.2 285.578 54.76 284.298C59.4 283.098 64.36 281.858 69.64 280.578V285.498C64.76 285.098 59.88 284.618 55 284.058C50.2 283.498 45.36 282.818 40.48 282.018L4 276.378V258.858ZM43.48 385.612V400.252C43.48 404.652 44.56 408.052 46.72 410.452C48.96 412.932 52.08 414.172 56.08 414.172C60.32 414.172 63.48 412.932 65.56 410.452C67.72 408.052 68.8 404.692 68.8 400.372V385.492L72.76 389.452H4V371.932H85.72V401.572C85.72 407.732 84.52 413.092 82.12 417.652C79.72 422.212 76.28 425.732 71.8 428.212C67.4 430.772 62.16 432.052 56.08 432.052C50 432.052 44.72 430.772 40.24 428.212C35.84 425.732 32.44 422.172 30.04 417.532C27.72 412.972 26.56 407.652 26.56 401.572V385.612H43.48ZM4 463.744V446.224H85.72V463.744H4ZM44.8 478.219C50.96 478.219 56.6 479.219 61.72 481.219C66.92 483.299 71.4 486.219 75.16 489.979C79 493.739 81.96 498.179 84.04 503.299C86.12 508.419 87.16 514.099 87.16 520.339C87.16 526.419 86.12 532.019 84.04 537.139C81.96 542.339 79 546.819 75.16 550.579C71.4 554.339 66.92 557.219 61.72 559.219C56.6 561.299 50.96 562.339 44.8 562.339C38.64 562.339 32.96 561.299 27.76 559.219C22.64 557.219 18.16 554.339 14.32 550.579C10.56 546.819 7.64 542.339 5.56 537.139C3.56 532.019 2.56 526.419 2.56 520.339C2.56 514.099 3.56 508.419 5.56 503.299C7.64 498.179 10.56 493.739 14.32 489.979C18.16 486.219 22.64 483.299 27.76 481.219C32.96 479.219 38.64 478.219 44.8 478.219ZM44.8 496.099C39.76 496.099 35.36 497.139 31.6 499.219C27.84 501.299 24.92 504.139 22.84 507.739C20.76 511.419 19.72 515.619 19.72 520.339C19.72 524.979 20.76 529.099 22.84 532.699C24.92 536.379 27.84 539.259 31.6 541.339C35.36 543.419 39.8 544.459 44.92 544.459C49.96 544.459 54.36 543.419 58.12 541.339C61.88 539.259 64.76 536.379 66.76 532.699C68.84 529.099 69.88 524.979 69.88 520.339C69.88 515.619 68.84 511.419 66.76 507.739C64.68 504.139 61.76 501.299 58 499.219C54.32 497.139 49.92 496.099 44.8 496.099ZM4 631.482L64.6 586.722L66.64 594.282H4V576.762H85.72V592.722L26.2 636.522L25 629.802H85.72V647.322H4V631.482Z"/>
</mask>
<path d="M7.96 21.4374L6.23323 20.4282L6.22763 20.4379L7.96 21.4374ZM22.84 7.03736L21.9103 5.26656L21.897 5.27354L21.8839 5.28072L22.84 7.03736ZM61.72 4.99736L62.4628 3.1404L62.4553 3.13739L62.4477 3.13444L61.72 4.99736ZM75.16 13.6374L73.7611 15.0667L73.7686 15.0741L73.7762 15.0813L75.16 13.6374ZM83.92 26.7174L82.061 27.455L82.064 27.4626L82.0671 27.4701L83.92 26.7174ZM80.8 67.1574L82.4575 68.2767L80.8 67.1574ZM63.04 81.3174L61.1726 82.0334L61.916 83.9722L63.8255 83.1566L63.04 81.3174ZM56.92 65.3574L55.9179 63.6265L54.442 64.481L55.0526 66.0734L56.92 65.3574ZM66.88 55.9974L65.1754 54.9513L65.1615 54.9739L65.1483 54.9968L66.88 55.9974ZM66.88 31.2774L65.1581 32.2948L65.165 32.3063L66.88 31.2774ZM58.12 22.8774L59.0881 21.1273L59.0737 21.1193L59.0592 21.1116L58.12 22.8774ZM31.48 22.8774L30.5561 21.1035L30.5339 21.1151L30.5119 21.1273L31.48 22.8774ZM22.72 31.2774L20.9981 30.2599L20.9932 30.2683L20.9883 30.2768L22.72 31.2774ZM22.72 55.9974L24.4517 54.9968L24.4468 54.9883L24.4419 54.9799L22.72 55.9974ZM32.68 65.3574L34.5474 66.0734L35.158 64.481L33.6821 63.6265L32.68 65.3574ZM26.56 81.3174L25.7745 83.1566L27.684 83.9722L28.4274 82.0334L26.56 81.3174ZM8.8 67.1574L10.4575 66.038L8.8 67.1574ZM2.56 43.5174H4.56C4.56 35.3256 6.29652 28.3229 9.69237 22.4368L7.96 21.4374L6.22763 20.4379C2.42347 27.0318 0.559998 34.7491 0.559998 43.5174H2.56ZM7.96 21.4374L9.68674 22.4465C13.1012 16.6041 17.7935 12.0613 23.7962 8.794L22.84 7.03736L21.8839 5.28072C15.2465 8.89343 10.0188 13.9507 6.23325 20.4282L7.96 21.4374ZM22.84 7.03736L23.7697 8.80815C29.845 5.61861 36.8382 3.99736 44.8 3.99736V1.99736V-0.00264406C36.2819 -0.00264406 28.635 1.7361 21.9103 5.26656L22.84 7.03736ZM44.8 1.99736V3.99736C50.7409 3.99736 56.1305 4.96115 60.9923 6.86027L61.72 4.99736L62.4477 3.13444C57.0695 1.03357 51.1791 -0.00264406 44.8 -0.00264406V1.99736ZM61.72 4.99736L60.9772 6.85431C65.9485 8.8428 70.2014 11.5828 73.7611 15.0667L75.16 13.6374L76.5589 12.208C72.5986 8.33195 67.8915 5.31191 62.4628 3.1404L61.72 4.99736ZM75.16 13.6374L73.7762 15.0813C77.4048 18.5588 80.1648 22.6765 82.061 27.455L83.92 26.7174L85.779 25.9797C83.6752 20.6782 80.5952 16.0759 76.5438 12.1934L75.16 13.6374ZM83.92 26.7174L82.0671 27.4701C84.0406 32.3281 85.04 37.6695 85.04 43.5174H87.04H89.04C89.04 37.2052 87.9594 31.3466 85.7729 25.9646L83.92 26.7174ZM87.04 43.5174H85.04C85.04 52.8338 83.0224 60.2928 79.1426 66.038L80.8 67.1574L82.4575 68.2767C86.8976 61.7019 89.04 53.4009 89.04 43.5174H87.04ZM80.8 67.1574L79.1426 66.038C75.2238 71.8408 69.6257 76.3299 62.2545 79.4781L63.04 81.3174L63.8255 83.1566C71.8143 79.7448 78.0562 74.7939 82.4575 68.2767L80.8 67.1574ZM63.04 81.3174L64.9074 80.6013L58.7874 64.6413L56.92 65.3574L55.0526 66.0734L61.1726 82.0334L63.04 81.3174ZM56.92 65.3574L57.9221 67.0882C62.7054 64.3189 66.3157 60.9718 68.6117 56.9979L66.88 55.9974L65.1483 54.9968C63.2843 58.2229 60.2546 61.1158 55.9179 63.6265L56.92 65.3574ZM66.88 55.9974L68.5847 57.0434C70.9673 53.1605 72.12 48.6257 72.12 43.5174H70.12H68.12C68.12 48.009 67.1127 51.7942 65.1754 54.9513L66.88 55.9974ZM70.12 43.5174H72.12C72.12 38.6272 70.9574 34.1858 68.595 30.2484L66.88 31.2774L65.165 32.3063C67.1226 35.5689 68.12 39.2875 68.12 43.5174H70.12ZM66.88 31.2774L68.6019 30.2599C66.331 26.417 63.1436 23.3708 59.0881 21.1273L58.12 22.8774L57.1519 24.6274C60.6164 26.544 63.269 29.0978 65.1582 32.2948L66.88 31.2774ZM58.12 22.8774L59.0592 21.1116C54.9571 18.9296 50.1817 17.8774 44.8 17.8774V19.8774V21.8774C49.6583 21.8774 53.763 22.8251 57.1808 24.6431L58.12 22.8774ZM44.8 19.8774V17.8774C39.4912 17.8774 34.7249 18.9323 30.5561 21.1035L31.48 22.8774L32.4039 24.6512C35.9151 22.8224 40.0288 21.8774 44.8 21.8774V19.8774ZM31.48 22.8774L30.5119 21.1273C26.4564 23.3708 23.269 26.417 20.9981 30.2599L22.72 31.2774L24.4419 32.2948C26.331 29.0978 28.9836 26.544 32.4481 24.6274L31.48 22.8774ZM22.72 31.2774L20.9883 30.2768C18.7158 34.2099 17.6 38.641 17.6 43.5174H19.6H21.6C21.6 39.2737 22.5642 35.5448 24.4517 32.2779L22.72 31.2774ZM19.6 43.5174H17.6C17.6 48.6124 18.7065 53.1367 20.9981 57.0148L22.72 55.9974L24.4419 54.9799C22.5735 51.818 21.6 48.0223 21.6 43.5174H19.6ZM22.72 55.9974L20.9883 56.9979C23.2843 60.9718 26.8946 64.3189 31.6779 67.0882L32.68 65.3574L33.6821 63.6265C29.3454 61.1158 26.3157 58.2229 24.4517 54.9968L22.72 55.9974ZM32.68 65.3574L30.8126 64.6413L24.6926 80.6013L26.56 81.3174L28.4274 82.0334L34.5474 66.0734L32.68 65.3574ZM26.56 81.3174L27.3455 79.4781C19.9743 76.3299 14.3762 71.8408 10.4575 66.038L8.8 67.1574L7.14256 68.2767C11.5438 74.7939 17.7857 79.7448 25.7745 83.1566L26.56 81.3174ZM8.8 67.1574L10.4575 66.038C6.57756 60.2928 4.56 52.8338 4.56 43.5174H2.56H0.559998C0.559998 53.4009 2.70244 61.7019 7.14256 68.2767L8.8 67.1574ZM4 144.472V142.472H2V144.472H4ZM85.72 144.472H87.72V142.472H85.72V144.472ZM85.72 161.992V163.992H87.72V161.992H85.72ZM4 161.992H2V163.992H4V161.992ZM4 95.032V93.032H2V95.032H4ZM85.72 95.032H87.72V93.032H85.72V95.032ZM85.72 112.552V114.552H87.72V112.552H85.72ZM4 112.552H2V114.552H4V112.552ZM35.56 106.312V104.312H33.56V106.312H35.56ZM52.48 106.312H54.48V104.312H52.48V106.312ZM52.48 150.352V152.352H54.48V150.352H52.48ZM35.56 150.352H33.56V152.352H35.56V150.352ZM4 144.472V146.472H85.72V144.472V142.472H4V144.472ZM85.72 144.472H83.72V161.992H85.72H87.72V144.472H85.72ZM85.72 161.992V159.992H4V161.992V163.992H85.72V161.992ZM4 161.992H6V144.472H4H2V161.992H4ZM4 95.032V97.032H85.72V95.032V93.032H4V95.032ZM85.72 95.032H83.72V112.552H85.72H87.72V95.032H85.72ZM85.72 112.552V110.552H4V112.552V114.552H85.72V112.552ZM4 112.552H6V95.032H4H2V112.552H4ZM35.56 106.312V108.312H52.48V106.312V104.312H35.56V106.312ZM52.48 106.312H50.48V150.352H52.48H54.48V106.312H52.48ZM52.48 150.352V148.352H35.56V150.352V152.352H52.48V150.352ZM35.56 150.352H37.56V106.312H35.56H33.56V150.352H35.56ZM35.44 192.223H37.44V190.223H35.44V192.223ZM35.44 230.623V232.623H37.44V230.623H35.44ZM19.24 230.623H17.24V232.623H19.24V230.623ZM19.24 192.223V190.223H17.24V192.223H19.24ZM4 174.343L4.66969 172.458L2 171.509V174.343H4ZM85.72 203.383H87.72V201.971L86.3897 201.498L85.72 203.383ZM85.72 222.703L86.36 224.598L87.72 224.138V222.703H85.72ZM4 250.303H2V253.089L4.63996 252.198L4 250.303ZM4 232.543L3.39021 230.638L2 231.083V232.543H4ZM73.72 210.223H75.72V207.482L73.1102 208.318L73.72 210.223ZM73.72 215.983L73.069 217.874L75.72 218.786V215.983H73.72ZM4 191.983H2V193.409L3.34902 193.874L4 191.983ZM35.44 192.223H33.44V230.623H35.44H37.44V192.223H35.44ZM35.44 230.623V228.623H19.24V230.623V232.623H35.44V230.623ZM19.24 230.623H21.24V192.223H19.24H17.24V230.623H19.24ZM19.24 192.223V194.223H35.44V192.223V190.223H19.24V192.223ZM4 174.343L3.33031 176.227L85.0503 205.267L85.72 203.383L86.3897 201.498L4.66969 172.458L4 174.343ZM85.72 203.383H83.72V222.703H85.72H87.72V203.383H85.72ZM85.72 222.703L85.08 220.808L3.36004 248.408L4 250.303L4.63996 252.198L86.36 224.598L85.72 222.703ZM4 250.303H6V232.543H4H2V250.303H4ZM4 232.543L4.60979 234.447L74.3298 212.127L73.72 210.223L73.1102 208.318L3.39021 230.638L4 232.543ZM73.72 210.223H71.72V215.983H73.72H75.72V210.223H73.72ZM73.72 215.983L74.371 214.092L4.65098 190.092L4 191.983L3.34902 193.874L73.069 217.874L73.72 215.983ZM4 191.983H6V174.343H4H2V191.983H4ZM4 258.858L4.34708 256.889L2 256.475V258.858H4ZM85.72 273.258H87.72V271.58L86.0671 271.289L85.72 273.258ZM85.72 288.978L86.3803 290.866L87.72 290.398V288.978H85.72ZM29.8 308.538H27.8V311.357L30.4603 310.426L29.8 308.538ZM29.8 307.698L30.4603 305.81L27.8 304.88V307.698H29.8ZM85.72 327.258H87.72V325.839L86.3803 325.37L85.72 327.258ZM85.72 342.978L86.0699 344.947L87.72 344.654V342.978H85.72ZM4 357.498H2V359.885L4.34988 359.467L4 357.498ZM4 339.858L3.69442 337.882L2 338.144V339.858H4ZM40.48 334.218L40.1881 332.24L40.1744 332.242L40.48 334.218ZM55 332.178L54.772 330.191L54.7538 330.193L54.7357 330.196L55 332.178ZM69.64 330.738H71.64V328.568L69.4766 328.745L69.64 330.738ZM69.64 335.658L69.1688 337.602L71.64 338.201V335.658H69.64ZM54.76 331.818L55.2919 329.89L55.2763 329.886L55.2608 329.882L54.76 331.818ZM40.72 327.498L41.3907 325.614L41.379 325.61L40.72 327.498ZM4.96 315.018H2.96V316.439L4.30099 316.907L4.96 315.018ZM4.96 301.218L4.30099 299.33L2.96 299.798V301.218H4.96ZM40.72 288.738L41.379 290.627L41.3807 290.626L40.72 288.738ZM54.76 284.298L54.2592 282.362L54.2393 282.367L54.2195 282.373L54.76 284.298ZM69.64 280.578H71.64V278.036L69.1688 278.635L69.64 280.578ZM69.64 285.498L69.4766 287.492L71.64 287.669V285.498H69.64ZM55 284.058L54.7682 286.045L54.772 286.045L55 284.058ZM40.48 282.018L40.8036 280.045L40.7946 280.043L40.7856 280.042L40.48 282.018ZM4 276.378H2V278.093L3.69442 278.355L4 276.378ZM4 258.858L3.65292 260.828L85.3729 275.228L85.72 273.258L86.0671 271.289L4.34708 256.889L4 258.858ZM85.72 273.258H83.72V288.978H85.72H87.72V273.258H85.72ZM85.72 288.978L85.0597 287.09L29.1397 306.65L29.8 308.538L30.4603 310.426L86.3803 290.866L85.72 288.978ZM29.8 308.538H31.8V307.698H29.8H27.8V308.538H29.8ZM29.8 307.698L29.1397 309.586L85.0597 329.146L85.72 327.258L86.3803 325.37L30.4603 305.81L29.8 307.698ZM85.72 327.258H83.72V342.978H85.72H87.72V327.258H85.72ZM85.72 342.978L85.3701 341.009L3.65012 355.529L4 357.498L4.34988 359.467L86.0699 344.947L85.72 342.978ZM4 357.498H6V339.858H4H2V357.498H4ZM4 339.858L4.30558 341.835L40.7856 336.195L40.48 334.218L40.1744 332.242L3.69442 337.882L4 339.858ZM40.48 334.218L40.7719 336.197C45.6429 335.478 50.4737 334.799 55.2643 334.161L55 332.178L54.7357 330.196C49.9263 330.837 45.0771 331.518 40.1881 332.24L40.48 334.218ZM55 332.178L55.228 334.165C60.0866 333.608 64.945 333.13 69.8034 332.732L69.64 330.738L69.4766 328.745C64.575 329.147 59.6734 329.629 54.772 330.191L55 332.178ZM69.64 330.738H67.64V335.658H69.64H71.64V330.738H69.64ZM69.64 335.658L70.1112 333.715C64.849 332.439 59.9094 331.164 55.2919 329.89L54.76 331.818L54.2281 333.746C58.8906 335.032 63.871 336.318 69.1688 337.602L69.64 335.658ZM54.76 331.818L55.2608 329.882C50.6807 328.697 46.0573 327.275 41.3906 325.614L40.72 327.498L40.0494 329.383C44.8227 331.081 49.5593 332.539 54.2592 333.755L54.76 331.818ZM40.72 327.498L41.379 325.61L5.61901 313.13L4.96 315.018L4.30099 316.907L40.061 329.387L40.72 327.498ZM4.96 315.018H6.96V301.218H4.96H2.96V315.018H4.96ZM4.96 301.218L5.619 303.107L41.379 290.627L40.72 288.738L40.061 286.85L4.30099 299.33L4.96 301.218ZM40.72 288.738L41.3807 290.626C46.1439 288.959 50.7838 287.492 55.3005 286.224L54.76 284.298L54.2195 282.373C49.6162 283.665 44.8961 285.158 40.0593 286.851L40.72 288.738ZM54.76 284.298L55.2608 286.235C59.8897 285.037 64.8398 283.8 70.1112 282.522L69.64 280.578L69.1688 278.635C63.8802 279.917 58.9103 281.159 54.2592 282.362L54.76 284.298ZM69.64 280.578H67.64V285.498H69.64H71.64V280.578H69.64ZM69.64 285.498L69.8034 283.505C64.945 283.107 60.0866 282.629 55.228 282.071L55 284.058L54.772 286.045C59.6734 286.608 64.575 287.09 69.4766 287.492L69.64 285.498ZM55 284.058L55.2318 282.072C50.4632 281.515 45.6538 280.84 40.8036 280.045L40.48 282.018L40.1565 283.992C45.0662 284.797 49.9368 285.481 54.7682 286.045L55 284.058ZM40.48 282.018L40.7856 280.042L4.30558 274.402L4 276.378L3.69442 278.355L40.1744 283.995L40.48 282.018ZM4 276.378H6V258.858H4H2V276.378H4ZM43.48 385.612H45.48V383.612H43.48V385.612ZM46.72 410.452L45.2334 411.79L45.2358 411.793L46.72 410.452ZM65.56 410.452L64.0734 409.114L64.0501 409.14L64.0276 409.167L65.56 410.452ZM68.8 385.492L70.2142 384.078L66.8 380.664V385.492H68.8ZM72.76 389.452V391.452H77.5884L74.1742 388.038L72.76 389.452ZM4 389.452H2V391.452H4V389.452ZM4 371.932V369.932H2V371.932H4ZM85.72 371.932H87.72V369.932H85.72V371.932ZM82.12 417.652L80.3502 416.721L82.12 417.652ZM71.8 428.212L70.8314 426.462L70.8127 426.473L70.7942 426.483L71.8 428.212ZM40.24 428.212L41.2323 426.476L41.222 426.47L40.24 428.212ZM30.04 417.532L28.2574 418.439L28.2636 418.451L30.04 417.532ZM26.56 385.612V383.612H24.56V385.612H26.56ZM43.48 385.612H41.48V400.252H43.48H45.48V385.612H43.48ZM43.48 400.252H41.48C41.48 404.965 42.6391 408.907 45.2334 411.79L46.72 410.452L48.2066 409.114C46.4809 407.197 45.48 404.339 45.48 400.252H43.48ZM46.72 410.452L45.2358 411.793C47.9294 414.775 51.6356 416.172 56.08 416.172V414.172V412.172C52.5244 412.172 49.9907 411.089 48.2042 409.111L46.72 410.452ZM56.08 414.172V416.172C60.7152 416.172 64.5222 414.802 67.0924 411.737L65.56 410.452L64.0276 409.167C62.4378 411.062 59.9248 412.172 56.08 412.172V414.172ZM65.56 410.452L67.0466 411.79C69.6353 408.914 70.8 405.017 70.8 400.372H68.8H66.8C66.8 404.368 65.8047 407.19 64.0734 409.114L65.56 410.452ZM68.8 400.372H70.8V385.492H68.8H66.8V400.372H68.8ZM68.8 385.492L67.3858 386.906L71.3458 390.866L72.76 389.452L74.1742 388.038L70.2142 384.078L68.8 385.492ZM72.76 389.452V387.452H4V389.452V391.452H72.76V389.452ZM4 389.452H6V371.932H4H2V389.452H4ZM4 371.932V373.932H85.72V371.932V369.932H4V371.932ZM85.72 371.932H83.72V401.572H85.72H87.72V371.932H85.72ZM85.72 401.572H83.72C83.72 407.471 82.5721 412.499 80.3502 416.721L82.12 417.652L83.8898 418.584C86.4679 413.685 87.72 407.994 87.72 401.572H85.72ZM82.12 417.652L80.3502 416.721C78.1305 420.938 74.968 424.172 70.8314 426.462L71.8 428.212L72.7686 429.962C77.592 427.292 81.3095 423.486 83.8898 418.584L82.12 417.652ZM71.8 428.212L70.7942 426.483C66.7541 428.834 61.8756 430.052 56.08 430.052V432.052V434.052C62.4445 434.052 68.0459 432.71 72.8058 429.941L71.8 428.212ZM56.08 432.052V430.052C50.2856 430.052 45.3601 428.834 41.2323 426.476L40.24 428.212L39.2477 429.949C44.0799 432.71 49.7144 434.052 56.08 434.052V432.052ZM40.24 428.212L41.222 426.47C37.1735 424.188 34.044 420.92 31.8164 416.613L30.04 417.532L28.2636 418.451C30.836 423.424 34.5065 427.276 39.258 429.954L40.24 428.212ZM30.04 417.532L31.8226 416.625C29.6701 412.394 28.56 407.396 28.56 401.572H26.56H24.56C24.56 407.908 25.77 413.55 28.2574 418.439L30.04 417.532ZM26.56 401.572H28.56V385.612H26.56H24.56V401.572H26.56ZM26.56 385.612V387.612H43.48V385.612V383.612H26.56V385.612ZM4 463.744H2V465.744H4V463.744ZM4 446.224V444.224H2V446.224H4ZM85.72 446.224H87.72V444.224H85.72V446.224ZM85.72 463.744V465.744H87.72V463.744H85.72ZM4 463.744H6V446.224H4H2V463.744H4ZM4 446.224V448.224H85.72V446.224V444.224H4V446.224ZM85.72 446.224H83.72V463.744H85.72H87.72V446.224H85.72ZM85.72 463.744V461.744H4V463.744V465.744H85.72V463.744ZM61.72 481.219L62.4628 479.362L62.4553 479.359L62.4477 479.356L61.72 481.219ZM75.16 489.979L73.7458 491.393L73.7532 491.401L73.7608 491.408L75.16 489.979ZM84.04 503.299L85.8929 502.546H85.8929L84.04 503.299ZM84.04 537.139L82.187 536.386L82.1831 536.396L84.04 537.139ZM75.16 550.579L73.7608 549.15L73.7532 549.158L73.7458 549.165L75.16 550.579ZM61.72 559.219L61.002 557.353L60.9846 557.359L60.9673 557.366L61.72 559.219ZM27.76 559.219L28.5028 557.362L28.4953 557.359L28.4877 557.356L27.76 559.219ZM14.32 550.579L12.9058 551.993L12.9132 552.001L12.9208 552.008L14.32 550.579ZM5.56 537.139L3.69708 537.867L3.70004 537.874L3.70305 537.882L5.56 537.139ZM5.56 503.299L3.70707 502.546L3.70199 502.559L3.69708 502.572L5.56 503.299ZM14.32 489.979L12.9208 488.55L12.9132 488.558L12.9058 488.565L14.32 489.979ZM27.76 481.219L27.042 479.353L27.0246 479.359L27.0072 479.366L27.76 481.219ZM31.6 499.219L30.6319 497.469L31.6 499.219ZM22.84 507.739L21.1083 506.739L21.1035 506.747L21.0989 506.755L22.84 507.739ZM22.84 532.699L24.5811 531.715L24.5765 531.707L24.5717 531.699L22.84 532.699ZM31.6 541.339L30.6319 543.089H30.6319L31.6 541.339ZM58.12 541.339L59.0881 543.089L58.12 541.339ZM66.76 532.699L65.0283 531.699L65.0152 531.721L65.0028 531.744L66.76 532.699ZM66.76 507.739L68.5011 506.755L68.4965 506.747L68.4917 506.739L66.76 507.739ZM58 499.219L57.0159 500.96L57.0239 500.965L57.0319 500.969L58 499.219ZM44.8 478.219V480.219C50.7409 480.219 56.1305 481.183 60.9923 483.082L61.72 481.219L62.4477 479.356C57.0695 477.255 51.1791 476.219 44.8 476.219V478.219ZM61.72 481.219L60.9772 483.076C65.9394 485.061 70.1874 487.835 73.7458 491.393L75.16 489.979L76.5742 488.565C72.6126 484.603 67.9006 481.537 62.4628 479.362L61.72 481.219ZM75.16 489.979L73.7608 491.408C77.3991 494.971 80.2073 499.179 82.1871 504.052L84.04 503.299L85.8929 502.546C83.7127 497.18 80.6009 492.508 76.5593 488.55L75.16 489.979ZM84.04 503.299L82.1871 504.052C84.1582 508.904 85.16 514.324 85.16 520.339H87.16H89.16C89.16 513.874 88.0818 507.934 85.8929 502.546L84.04 503.299ZM87.16 520.339H85.16C85.16 526.187 84.1606 531.528 82.1871 536.386L84.04 537.139L85.8929 537.892C88.0794 532.51 89.16 526.651 89.16 520.339H87.16ZM84.04 537.139L82.1831 536.396C80.2018 541.349 77.3938 545.593 73.7608 549.15L75.16 550.579L76.5593 552.008C80.6062 548.046 83.7182 543.329 85.897 537.882L84.04 537.139ZM75.16 550.579L73.7458 549.165C70.1931 552.718 65.9536 555.448 61.002 557.353L61.72 559.219L62.438 561.086C67.8864 558.99 72.6069 555.961 76.5742 551.993L75.16 550.579ZM61.72 559.219L60.9673 557.366C56.1123 559.339 50.7315 560.339 44.8 560.339V562.339V564.339C51.1885 564.339 57.0877 563.26 62.4728 561.072L61.72 559.219ZM44.8 562.339V560.339C38.869 560.339 33.444 559.339 28.5028 557.362L27.76 559.219L27.0172 561.076C32.476 563.26 38.411 564.339 44.8 564.339V562.339ZM27.76 559.219L28.4877 557.356C23.6126 555.452 19.3624 552.717 15.7193 549.15L14.32 550.579L12.9208 552.008C16.9576 555.961 21.6674 558.986 27.0323 561.082L27.76 559.219ZM14.32 550.579L15.7342 549.165C12.1758 545.607 9.40181 541.359 7.41695 536.396L5.56 537.139L3.70305 537.882C5.87819 543.32 8.94415 548.032 12.9058 551.993L14.32 550.579ZM5.56 537.139L7.42291 536.411C5.52264 531.547 4.56 526.197 4.56 520.339H2.56H0.559998C0.559998 526.642 1.59736 532.492 3.69708 537.867L5.56 537.139ZM2.56 520.339H4.56C4.56 514.315 5.52491 508.886 7.42291 504.027L5.56 503.299L3.69708 502.572C1.59509 507.953 0.559998 513.884 0.559998 520.339H2.56ZM5.56 503.299L7.41293 504.052C9.39639 499.17 12.1706 494.957 15.7342 491.393L14.32 489.979L12.9058 488.565C8.94939 492.521 5.88361 497.189 3.70707 502.546L5.56 503.299ZM14.32 489.979L15.7193 491.408C19.3681 487.835 23.6268 485.057 28.5128 483.072L27.76 481.219L27.0072 479.366C21.6532 481.541 16.9519 484.603 12.9208 488.55L14.32 489.979ZM27.76 481.219L28.478 483.086C33.4259 481.183 38.8596 480.219 44.8 480.219V478.219V476.219C38.4204 476.219 32.4941 477.256 27.042 479.353L27.76 481.219ZM44.8 496.099V494.099C39.4802 494.099 34.7357 495.199 30.6319 497.469L31.6 499.219L32.5681 500.969C35.9843 499.08 40.0398 498.099 44.8 498.099V496.099ZM31.6 499.219L30.6319 497.469C26.5652 499.719 23.3763 502.813 21.1083 506.739L22.84 507.739L24.5717 508.74C26.4637 505.465 29.1148 502.88 32.5681 500.969L31.6 499.219ZM22.84 507.739L21.0989 506.755C18.8301 510.769 17.72 515.315 17.72 520.339H19.72H21.72C21.72 515.923 22.6899 512.069 24.5811 508.723L22.84 507.739ZM19.72 520.339H17.72C17.72 525.289 18.8328 529.761 21.1083 533.7L22.84 532.699L24.5717 531.699C22.6872 528.437 21.72 524.67 21.72 520.339H19.72ZM22.84 532.699L21.0989 533.683C23.3639 537.691 26.554 540.833 30.6319 543.089L31.6 541.339L32.5681 539.589C29.126 537.685 26.4761 535.068 24.5811 531.715L22.84 532.699ZM31.6 541.339L30.6319 543.089C34.7402 545.362 39.5262 546.459 44.92 546.459V544.459V542.459C40.0738 542.459 35.9798 541.476 32.5681 539.589L31.6 541.339ZM44.92 544.459V546.459C50.2398 546.459 54.9843 545.359 59.0881 543.089L58.12 541.339L57.1519 539.589C53.7358 541.479 49.6802 542.459 44.92 542.459V544.459ZM58.12 541.339L59.0881 543.089C63.1724 540.83 66.3304 537.678 68.5173 533.654L66.76 532.699L65.0028 531.744C63.1896 535.08 60.5876 537.689 57.1519 539.589L58.12 541.339ZM66.76 532.699L68.4917 533.7C70.7672 529.761 71.88 525.289 71.88 520.339H69.88H67.88C67.88 524.67 66.9128 528.437 65.0283 531.699L66.76 532.699ZM69.88 520.339H71.88C71.88 515.315 70.7699 510.769 68.5011 506.755L66.76 507.739L65.0189 508.723C66.9101 512.069 67.88 515.923 67.88 520.339H69.88ZM66.76 507.739L68.4917 506.739C66.2237 502.813 63.0348 499.719 58.9681 497.469L58 499.219L57.0319 500.969C60.4852 502.88 63.1363 505.465 65.0283 508.74L66.76 507.739ZM58 499.219L58.9841 497.478C54.9465 495.196 50.1923 494.099 44.8 494.099V496.099V498.099C49.6477 498.099 53.6935 499.082 57.0159 500.96L58 499.219ZM4 631.482L2.81175 629.873L2 630.473V631.482H4ZM64.6 586.722L66.5309 586.201L65.7678 583.373L63.4118 585.113L64.6 586.722ZM66.64 594.282V596.282H69.2512L68.5709 593.761L66.64 594.282ZM4 594.282H2V596.282H4V594.282ZM4 576.762V574.762H2V576.762H4ZM85.72 576.762H87.72V574.762H85.72V576.762ZM85.72 592.722L86.9054 594.333L87.72 593.733V592.722H85.72ZM26.2 636.522L24.2311 636.873L24.7962 640.038L27.3854 638.133L26.2 636.522ZM25 629.802V627.802H22.6112L23.0311 630.153L25 629.802ZM85.72 629.802H87.72V627.802H85.72V629.802ZM85.72 647.322V649.322H87.72V647.322H85.72ZM4 647.322H2V649.322H4V647.322ZM4 631.482L5.18825 633.09L65.7882 588.33L64.6 586.722L63.4118 585.113L2.81175 629.873L4 631.482ZM64.6 586.722L62.6691 587.243L64.7091 594.803L66.64 594.282L68.5709 593.761L66.5309 586.201L64.6 586.722ZM66.64 594.282V592.282H4V594.282V596.282H66.64V594.282ZM4 594.282H6V576.762H4H2V594.282H4ZM4 576.762V578.762H85.72V576.762V574.762H4V576.762ZM85.72 576.762H83.72V592.722H85.72H87.72V576.762H85.72ZM85.72 592.722L84.5346 591.111L25.0146 634.911L26.2 636.522L27.3854 638.133L86.9054 594.333L85.72 592.722ZM26.2 636.522L28.1689 636.17L26.9689 629.45L25 629.802L23.0311 630.153L24.2311 636.873L26.2 636.522ZM25 629.802V631.802H85.72V629.802V627.802H25V629.802ZM85.72 629.802H83.72V647.322H85.72H87.72V629.802H85.72ZM85.72 647.322V645.322H4V647.322V649.322H85.72V647.322ZM4 647.322H6V631.482H4H2V647.322H4Z" fill="white" mask="url(#path-1-outside-1_8_156)"/>
</svg>
